<mxfile host="app.diagrams.net" modified="2023-11-16T21:45:44.491Z" agent="Mozilla/5.0 (Windows NT 10.0; Win64; x64) AppleWebKit/537.36 (KHTML, like Gecko) Chrome/119.0.0.0 Safari/537.36" etag="mW7gAmIqW90Ace_aVuyL" version="22.1.2" type="device">
  <diagram id="C5RBs43oDa-KdzZeNtuy" name="Page-1">
    <mxGraphModel dx="2790" dy="2502" grid="1" gridSize="10" guides="1" tooltips="1" connect="1" arrows="1" fold="1" page="1" pageScale="1" pageWidth="827" pageHeight="1169" math="0" shadow="0">
      <root>
        <mxCell id="WIyWlLk6GJQsqaUBKTNV-0" />
        <mxCell id="WIyWlLk6GJQsqaUBKTNV-1" parent="WIyWlLk6GJQsqaUBKTNV-0" />
        <mxCell id="O9sGYvbLRa1DsgovrzPc-1" value="" style="swimlane;startSize=0;" parent="WIyWlLk6GJQsqaUBKTNV-1" vertex="1">
          <mxGeometry x="5" y="-1150" width="745" height="790" as="geometry">
            <mxRectangle x="5" y="-1150" width="50" height="40" as="alternateBounds" />
          </mxGeometry>
        </mxCell>
        <mxCell id="zkfFHV4jXpPFQw0GAbJ--6" value="Â Class exclusiveGames" style="swimlane;fontStyle=0;align=center;verticalAlign=top;childLayout=stackLayout;horizontal=1;startSize=26;horizontalStack=0;resizeParent=1;resizeLast=0;collapsible=1;marginBottom=0;rounded=0;shadow=0;strokeWidth=1;" parent="O9sGYvbLRa1DsgovrzPc-1" vertex="1">
          <mxGeometry x="277.5" y="99" width="190" height="430" as="geometry">
            <mxRectangle x="40" y="360" width="160" height="26" as="alternateBounds" />
          </mxGeometry>
        </mxCell>
        <mxCell id="mYd6lBIoJjma-zOiciX0-0" value="&lt;span style=&quot;background-color: rgb(248, 249, 250);&quot;&gt;&amp;nbsp;- idGame : INT&amp;nbsp;&lt;/span&gt;" style="text;whiteSpace=wrap;html=1;fontColor=#000000;" parent="zkfFHV4jXpPFQw0GAbJ--6" vertex="1">
          <mxGeometry y="26" width="190" height="24" as="geometry" />
        </mxCell>
        <mxCell id="zkfFHV4jXpPFQw0GAbJ--7" value="- Company : String" style="text;align=left;verticalAlign=top;spacingLeft=4;spacingRight=4;overflow=hidden;rotatable=0;points=[[0,0.5],[1,0.5]];portConstraint=eastwest;fontColor=#000000;" parent="zkfFHV4jXpPFQw0GAbJ--6" vertex="1">
          <mxGeometry y="50" width="190" height="26" as="geometry" />
        </mxCell>
        <mxCell id="mYd6lBIoJjma-zOiciX0-1" value="&amp;nbsp;- gameName : String" style="text;whiteSpace=wrap;html=1;fontColor=#000000;" parent="zkfFHV4jXpPFQw0GAbJ--6" vertex="1">
          <mxGeometry y="76" width="190" height="24" as="geometry" />
        </mxCell>
        <mxCell id="mYd6lBIoJjma-zOiciX0-2" value="&amp;nbsp;- descriptionGame : String" style="text;whiteSpace=wrap;html=1;fontColor=#000000;" parent="zkfFHV4jXpPFQw0GAbJ--6" vertex="1">
          <mxGeometry y="100" width="190" height="30" as="geometry" />
        </mxCell>
        <mxCell id="mYd6lBIoJjma-zOiciX0-3" value="&amp;nbsp;- oficialPrice : double" style="text;whiteSpace=wrap;html=1;fontColor=#000000;" parent="zkfFHV4jXpPFQw0GAbJ--6" vertex="1">
          <mxGeometry y="130" width="190" height="30" as="geometry" />
        </mxCell>
        <mxCell id="qZKDS2YTZpVm7oDBLpfX-6" value="- oficialDate : date" style="text;align=left;verticalAlign=top;spacingLeft=4;spacingRight=4;overflow=hidden;rotatable=0;points=[[0,0.5],[1,0.5]];portConstraint=eastwest;rounded=0;shadow=0;html=0;" parent="zkfFHV4jXpPFQw0GAbJ--6" vertex="1">
          <mxGeometry y="160" width="190" height="28" as="geometry" />
        </mxCell>
        <mxCell id="qZKDS2YTZpVm7oDBLpfX-7" value="&amp;nbsp;-&amp;nbsp; linkVideo : String" style="text;whiteSpace=wrap;html=1;fontColor=#000000;" parent="zkfFHV4jXpPFQw0GAbJ--6" vertex="1">
          <mxGeometry y="188" width="190" height="32" as="geometry" />
        </mxCell>
        <mxCell id="zkfFHV4jXpPFQw0GAbJ--9" value="&lt;br&gt;&lt;br&gt;" style="line;html=1;strokeWidth=1;align=left;verticalAlign=middle;spacingTop=-1;spacingLeft=3;spacingRight=3;rotatable=0;labelPosition=right;points=[];portConstraint=eastwest;" parent="zkfFHV4jXpPFQw0GAbJ--6" vertex="1">
          <mxGeometry y="220" width="190" height="30" as="geometry" />
        </mxCell>
        <mxCell id="qZKDS2YTZpVm7oDBLpfX-44" value="Require connection" style="text;whiteSpace=wrap;html=1;fontColor=#000000;" parent="zkfFHV4jXpPFQw0GAbJ--6" vertex="1">
          <mxGeometry y="250" width="190" height="30" as="geometry" />
        </mxCell>
        <mxCell id="eKCppygwwPN4vZ3J_LK9-73" value="getAllGamesFromCompany" style="text;whiteSpace=wrap;html=1;fontColor=#000000;" vertex="1" parent="zkfFHV4jXpPFQw0GAbJ--6">
          <mxGeometry y="280" width="190" height="30" as="geometry" />
        </mxCell>
        <mxCell id="eKCppygwwPN4vZ3J_LK9-76" value="getGameFromCompany" style="text;whiteSpace=wrap;html=1;fontColor=#000000;" vertex="1" parent="zkfFHV4jXpPFQw0GAbJ--6">
          <mxGeometry y="310" width="190" height="30" as="geometry" />
        </mxCell>
        <mxCell id="eKCppygwwPN4vZ3J_LK9-75" value="insertGame" style="text;whiteSpace=wrap;html=1;fontColor=#000000;" vertex="1" parent="zkfFHV4jXpPFQw0GAbJ--6">
          <mxGeometry y="340" width="190" height="30" as="geometry" />
        </mxCell>
        <mxCell id="eKCppygwwPN4vZ3J_LK9-91" value="deleteGame" style="text;whiteSpace=wrap;html=1;fontColor=#000000;" vertex="1" parent="zkfFHV4jXpPFQw0GAbJ--6">
          <mxGeometry y="370" width="190" height="30" as="geometry" />
        </mxCell>
        <mxCell id="eKCppygwwPN4vZ3J_LK9-74" value="updateGame" style="text;whiteSpace=wrap;html=1;fontColor=#000000;" vertex="1" parent="zkfFHV4jXpPFQw0GAbJ--6">
          <mxGeometry y="400" width="190" height="30" as="geometry" />
        </mxCell>
        <mxCell id="qZKDS2YTZpVm7oDBLpfX-23" value="Class dataEvent" style="swimlane;fontStyle=0;align=center;verticalAlign=top;childLayout=stackLayout;horizontal=1;startSize=26;horizontalStack=0;resizeParent=1;resizeLast=0;collapsible=1;marginBottom=0;rounded=0;shadow=0;strokeWidth=1;" parent="O9sGYvbLRa1DsgovrzPc-1" vertex="1">
          <mxGeometry x="525" y="450" width="180" height="310" as="geometry">
            <mxRectangle x="40" y="360" width="160" height="26" as="alternateBounds" />
          </mxGeometry>
        </mxCell>
        <mxCell id="Riz4VqSWYyMeKuzfUu8n-7" value="&lt;span style=&quot;background-color: rgb(248, 249, 250);&quot;&gt;&amp;nbsp;- id : INT&amp;nbsp;&lt;/span&gt;" style="text;whiteSpace=wrap;html=1;fontColor=#000000;" parent="qZKDS2YTZpVm7oDBLpfX-23" vertex="1">
          <mxGeometry y="26" width="180" height="24" as="geometry" />
        </mxCell>
        <mxCell id="Riz4VqSWYyMeKuzfUu8n-8" value="- idCompany : INT" style="text;align=left;verticalAlign=top;spacingLeft=4;spacingRight=4;overflow=hidden;rotatable=0;points=[[0,0.5],[1,0.5]];portConstraint=eastwest;fontColor=#000000;" parent="qZKDS2YTZpVm7oDBLpfX-23" vertex="1">
          <mxGeometry y="50" width="180" height="26" as="geometry" />
        </mxCell>
        <mxCell id="Riz4VqSWYyMeKuzfUu8n-9" value="&amp;nbsp;- lastEvent : date" style="text;whiteSpace=wrap;html=1;fontColor=#000000;" parent="qZKDS2YTZpVm7oDBLpfX-23" vertex="1">
          <mxGeometry y="76" width="180" height="24" as="geometry" />
        </mxCell>
        <mxCell id="Riz4VqSWYyMeKuzfUu8n-10" value="&amp;nbsp;- nextEvent : date" style="text;whiteSpace=wrap;html=1;fontColor=#000000;" parent="qZKDS2YTZpVm7oDBLpfX-23" vertex="1">
          <mxGeometry y="100" width="180" height="30" as="geometry" />
        </mxCell>
        <mxCell id="qZKDS2YTZpVm7oDBLpfX-31" value="" style="line;html=1;strokeWidth=1;align=left;verticalAlign=middle;spacingTop=-1;spacingLeft=3;spacingRight=3;rotatable=0;labelPosition=right;points=[];portConstraint=eastwest;" parent="qZKDS2YTZpVm7oDBLpfX-23" vertex="1">
          <mxGeometry y="130" width="180" height="30" as="geometry" />
        </mxCell>
        <mxCell id="qZKDS2YTZpVm7oDBLpfX-48" value="&lt;span style=&quot;color: rgb(0, 0, 0);&quot;&gt;Require connection&lt;br&gt;&lt;/span&gt;" style="text;html=1;align=left;verticalAlign=middle;resizable=0;points=[];autosize=1;strokeColor=none;fillColor=none;fontSize=12;fontColor=#007800;" parent="qZKDS2YTZpVm7oDBLpfX-23" vertex="1">
          <mxGeometry y="160" width="180" height="30" as="geometry" />
        </mxCell>
        <mxCell id="eKCppygwwPN4vZ3J_LK9-92" value="&lt;span style=&quot;color: rgb(0, 0, 0);&quot;&gt;getEventFromCompany&lt;br&gt;&lt;/span&gt;" style="text;html=1;align=left;verticalAlign=middle;resizable=0;points=[];autosize=1;strokeColor=none;fillColor=none;fontSize=12;fontColor=#007800;" vertex="1" parent="qZKDS2YTZpVm7oDBLpfX-23">
          <mxGeometry y="190" width="180" height="30" as="geometry" />
        </mxCell>
        <mxCell id="eKCppygwwPN4vZ3J_LK9-93" value="&lt;span style=&quot;color: rgb(0, 0, 0);&quot;&gt;insertEvent&lt;br&gt;&lt;/span&gt;" style="text;html=1;align=left;verticalAlign=middle;resizable=0;points=[];autosize=1;strokeColor=none;fillColor=none;fontSize=12;fontColor=#007800;" vertex="1" parent="qZKDS2YTZpVm7oDBLpfX-23">
          <mxGeometry y="220" width="180" height="30" as="geometry" />
        </mxCell>
        <mxCell id="eKCppygwwPN4vZ3J_LK9-94" value="&lt;span style=&quot;color: rgb(0, 0, 0);&quot;&gt;deleteEvent&lt;br&gt;&lt;/span&gt;" style="text;html=1;align=left;verticalAlign=middle;resizable=0;points=[];autosize=1;strokeColor=none;fillColor=none;fontSize=12;fontColor=#007800;" vertex="1" parent="qZKDS2YTZpVm7oDBLpfX-23">
          <mxGeometry y="250" width="180" height="30" as="geometry" />
        </mxCell>
        <mxCell id="eKCppygwwPN4vZ3J_LK9-95" value="&lt;span style=&quot;color: rgb(0, 0, 0);&quot;&gt;updateEvent&lt;br&gt;&lt;/span&gt;" style="text;html=1;align=left;verticalAlign=middle;resizable=0;points=[];autosize=1;strokeColor=none;fillColor=none;fontSize=12;fontColor=#007800;" vertex="1" parent="qZKDS2YTZpVm7oDBLpfX-23">
          <mxGeometry y="280" width="180" height="30" as="geometry" />
        </mxCell>
        <mxCell id="qZKDS2YTZpVm7oDBLpfX-10" value="Class notExclusiveGames" style="swimlane;fontStyle=0;align=center;verticalAlign=top;childLayout=stackLayout;horizontal=1;startSize=26;horizontalStack=0;resizeParent=1;resizeLast=0;collapsible=1;marginBottom=0;rounded=0;shadow=0;strokeWidth=1;" parent="O9sGYvbLRa1DsgovrzPc-1" vertex="1">
          <mxGeometry x="45" y="99" width="187" height="484" as="geometry">
            <mxRectangle x="730" y="-80" width="160" height="26" as="alternateBounds" />
          </mxGeometry>
        </mxCell>
        <mxCell id="Riz4VqSWYyMeKuzfUu8n-14" value="&lt;span style=&quot;background-color: rgb(248, 249, 250);&quot;&gt;&amp;nbsp;- idGame : INT&amp;nbsp;&lt;/span&gt;" style="text;whiteSpace=wrap;html=1;fontColor=#000000;" parent="qZKDS2YTZpVm7oDBLpfX-10" vertex="1">
          <mxGeometry y="26" width="187" height="24" as="geometry" />
        </mxCell>
        <mxCell id="Riz4VqSWYyMeKuzfUu8n-15" value="- linkVideo : String" style="text;align=left;verticalAlign=top;spacingLeft=4;spacingRight=4;overflow=hidden;rotatable=0;points=[[0,0.5],[1,0.5]];portConstraint=eastwest;fontColor=#000000;" parent="qZKDS2YTZpVm7oDBLpfX-10" vertex="1">
          <mxGeometry y="50" width="187" height="26" as="geometry" />
        </mxCell>
        <mxCell id="Riz4VqSWYyMeKuzfUu8n-19" value="- oficialDate : date" style="text;align=left;verticalAlign=top;spacingLeft=4;spacingRight=4;overflow=hidden;rotatable=0;points=[[0,0.5],[1,0.5]];portConstraint=eastwest;rounded=0;shadow=0;html=0;" parent="qZKDS2YTZpVm7oDBLpfX-10" vertex="1">
          <mxGeometry y="76" width="187" height="28" as="geometry" />
        </mxCell>
        <mxCell id="Riz4VqSWYyMeKuzfUu8n-18" value="&amp;nbsp;- oficialPrice : double" style="text;whiteSpace=wrap;html=1;fontColor=#000000;" parent="qZKDS2YTZpVm7oDBLpfX-10" vertex="1">
          <mxGeometry y="104" width="187" height="30" as="geometry" />
        </mxCell>
        <mxCell id="Riz4VqSWYyMeKuzfUu8n-17" value="&amp;nbsp;- descriptionGame : String" style="text;whiteSpace=wrap;html=1;fontColor=#000000;" parent="qZKDS2YTZpVm7oDBLpfX-10" vertex="1">
          <mxGeometry y="134" width="187" height="30" as="geometry" />
        </mxCell>
        <mxCell id="Riz4VqSWYyMeKuzfUu8n-16" value="&amp;nbsp;- gameName : String" style="text;whiteSpace=wrap;html=1;fontColor=#000000;" parent="qZKDS2YTZpVm7oDBLpfX-10" vertex="1">
          <mxGeometry y="164" width="187" height="24" as="geometry" />
        </mxCell>
        <mxCell id="qZKDS2YTZpVm7oDBLpfX-40" value="plataform_microsoft : boolean" style="text;whiteSpace=wrap;html=1;fontColor=#000000;" parent="qZKDS2YTZpVm7oDBLpfX-10" vertex="1">
          <mxGeometry y="188" width="187" height="20" as="geometry" />
        </mxCell>
        <mxCell id="NZdVa_XI40s3r7Bhednm-0" value="plataform_sony: boolean" style="text;whiteSpace=wrap;html=1;fontColor=#000000;" parent="qZKDS2YTZpVm7oDBLpfX-10" vertex="1">
          <mxGeometry y="208" width="187" height="20" as="geometry" />
        </mxCell>
        <mxCell id="NZdVa_XI40s3r7Bhednm-1" value="plataform_nintendo:&amp;nbsp;boolean" style="text;whiteSpace=wrap;html=1;fontColor=#000000;" parent="qZKDS2YTZpVm7oDBLpfX-10" vertex="1">
          <mxGeometry y="228" width="187" height="20" as="geometry" />
        </mxCell>
        <mxCell id="NZdVa_XI40s3r7Bhednm-2" value="plataform_pc: boolean" style="text;whiteSpace=wrap;html=1;fontColor=#000000;" parent="qZKDS2YTZpVm7oDBLpfX-10" vertex="1">
          <mxGeometry y="248" width="187" height="20" as="geometry" />
        </mxCell>
        <mxCell id="qZKDS2YTZpVm7oDBLpfX-18" value="" style="line;html=1;strokeWidth=1;align=left;verticalAlign=middle;spacingTop=-1;spacingLeft=3;spacingRight=3;rotatable=0;labelPosition=right;points=[];portConstraint=eastwest;" parent="qZKDS2YTZpVm7oDBLpfX-10" vertex="1">
          <mxGeometry y="268" width="187" height="30" as="geometry" />
        </mxCell>
        <mxCell id="qZKDS2YTZpVm7oDBLpfX-50" value="&lt;div style=&quot;text-align: left;&quot;&gt;&lt;font color=&quot;#000000&quot;&gt;Require connection&lt;/font&gt;&lt;/div&gt;" style="text;html=1;align=center;verticalAlign=middle;resizable=0;points=[];autosize=1;strokeColor=none;fillColor=none;fontSize=12;fontColor=#007800;" parent="qZKDS2YTZpVm7oDBLpfX-10" vertex="1">
          <mxGeometry y="298" width="187" height="30" as="geometry" />
        </mxCell>
        <mxCell id="eKCppygwwPN4vZ3J_LK9-64" value="&lt;div style=&quot;text-align: left;&quot;&gt;&lt;font color=&quot;#000000&quot;&gt;insertGame&lt;/font&gt;&lt;/div&gt;" style="text;html=1;align=center;verticalAlign=middle;resizable=0;points=[];autosize=1;strokeColor=none;fillColor=none;fontSize=12;fontColor=#007800;" vertex="1" parent="qZKDS2YTZpVm7oDBLpfX-10">
          <mxGeometry y="328" width="187" height="30" as="geometry" />
        </mxCell>
        <mxCell id="eKCppygwwPN4vZ3J_LK9-65" value="&lt;div style=&quot;text-align: left;&quot;&gt;&lt;font color=&quot;#000000&quot;&gt;deleteGame&lt;/font&gt;&lt;/div&gt;" style="text;html=1;align=center;verticalAlign=middle;resizable=0;points=[];autosize=1;strokeColor=none;fillColor=none;fontSize=12;fontColor=#007800;" vertex="1" parent="qZKDS2YTZpVm7oDBLpfX-10">
          <mxGeometry y="358" width="187" height="30" as="geometry" />
        </mxCell>
        <mxCell id="eKCppygwwPN4vZ3J_LK9-66" value="&lt;div style=&quot;text-align: left;&quot;&gt;&lt;font color=&quot;#000000&quot;&gt;updateGame&lt;/font&gt;&lt;/div&gt;" style="text;html=1;align=center;verticalAlign=middle;resizable=0;points=[];autosize=1;strokeColor=none;fillColor=none;fontSize=12;fontColor=#007800;" vertex="1" parent="qZKDS2YTZpVm7oDBLpfX-10">
          <mxGeometry y="388" width="187" height="30" as="geometry" />
        </mxCell>
        <mxCell id="eKCppygwwPN4vZ3J_LK9-67" value="&lt;div style=&quot;text-align: left;&quot;&gt;&lt;font color=&quot;#000000&quot;&gt;getGameFromId&lt;/font&gt;&lt;/div&gt;" style="text;html=1;align=center;verticalAlign=middle;resizable=0;points=[];autosize=1;strokeColor=none;fillColor=none;fontSize=12;fontColor=#007800;" vertex="1" parent="qZKDS2YTZpVm7oDBLpfX-10">
          <mxGeometry y="418" width="187" height="30" as="geometry" />
        </mxCell>
        <mxCell id="HYiXXA-MwvOxVraPLtR3-14" value="&amp;lt;&amp;lt;entity&amp;gt;&amp;gt;" style="text;html=1;strokeColor=none;fillColor=none;align=center;verticalAlign=middle;whiteSpace=wrap;rounded=0;" parent="O9sGYvbLRa1DsgovrzPc-1" vertex="1">
          <mxGeometry x="95" y="69" width="60" height="30" as="geometry" />
        </mxCell>
        <mxCell id="HYiXXA-MwvOxVraPLtR3-15" value="&amp;lt;&amp;lt;entity&amp;gt;&amp;gt;" style="text;html=1;strokeColor=none;fillColor=none;align=center;verticalAlign=middle;whiteSpace=wrap;rounded=0;" parent="O9sGYvbLRa1DsgovrzPc-1" vertex="1">
          <mxGeometry x="342.5" y="69" width="60" height="30" as="geometry" />
        </mxCell>
        <mxCell id="HYiXXA-MwvOxVraPLtR3-16" value="&amp;lt;&amp;lt;entity&amp;gt;&amp;gt;" style="text;html=1;strokeColor=none;fillColor=none;align=center;verticalAlign=middle;whiteSpace=wrap;rounded=0;" parent="O9sGYvbLRa1DsgovrzPc-1" vertex="1">
          <mxGeometry x="565" y="69" width="60" height="30" as="geometry" />
        </mxCell>
        <mxCell id="HYiXXA-MwvOxVraPLtR3-17" value="&amp;lt;&amp;lt;entity&amp;gt;&amp;gt;" style="text;html=1;strokeColor=none;fillColor=none;align=center;verticalAlign=middle;whiteSpace=wrap;rounded=0;" parent="O9sGYvbLRa1DsgovrzPc-1" vertex="1">
          <mxGeometry x="585" y="420" width="60" height="30" as="geometry" />
        </mxCell>
        <mxCell id="HYiXXA-MwvOxVraPLtR3-21" value="Class Connection" style="swimlane;fontStyle=0;childLayout=stackLayout;horizontal=1;startSize=30;horizontalStack=0;resizeParent=1;resizeParentMax=0;resizeLast=0;collapsible=1;marginBottom=0;whiteSpace=wrap;html=1;" parent="O9sGYvbLRa1DsgovrzPc-1" vertex="1">
          <mxGeometry x="45" y="610" width="140" height="120" as="geometry" />
        </mxCell>
        <mxCell id="HYiXXA-MwvOxVraPLtR3-26" value="- pool: Pool" style="text;strokeColor=none;fillColor=none;align=left;verticalAlign=middle;spacingLeft=4;spacingRight=4;overflow=hidden;points=[[0,0.5],[1,0.5]];portConstraint=eastwest;rotatable=0;whiteSpace=wrap;html=1;" parent="HYiXXA-MwvOxVraPLtR3-21" vertex="1">
          <mxGeometry y="30" width="140" height="30" as="geometry" />
        </mxCell>
        <mxCell id="eKCppygwwPN4vZ3J_LK9-97" value="" style="line;html=1;strokeWidth=1;align=left;verticalAlign=middle;spacingTop=-1;spacingLeft=3;spacingRight=3;rotatable=0;labelPosition=right;points=[];portConstraint=eastwest;" vertex="1" parent="HYiXXA-MwvOxVraPLtR3-21">
          <mxGeometry y="60" width="140" height="30" as="geometry" />
        </mxCell>
        <mxCell id="eKCppygwwPN4vZ3J_LK9-96" value="Require promise" style="text;strokeColor=none;fillColor=none;align=left;verticalAlign=middle;spacingLeft=4;spacingRight=4;overflow=hidden;points=[[0,0.5],[1,0.5]];portConstraint=eastwest;rotatable=0;whiteSpace=wrap;html=1;" vertex="1" parent="HYiXXA-MwvOxVraPLtR3-21">
          <mxGeometry y="90" width="140" height="30" as="geometry" />
        </mxCell>
        <mxCell id="YyFuCEUgJkDw3uB3olMP-77" value="Class login" style="swimlane;fontStyle=0;childLayout=stackLayout;horizontal=1;startSize=30;horizontalStack=0;resizeParent=1;resizeParentMax=0;resizeLast=0;collapsible=1;marginBottom=0;whiteSpace=wrap;html=1;" parent="O9sGYvbLRa1DsgovrzPc-1" vertex="1">
          <mxGeometry x="525" y="99" width="140" height="270" as="geometry" />
        </mxCell>
        <mxCell id="YyFuCEUgJkDw3uB3olMP-78" value="- id : INT&lt;br&gt;- email : String" style="text;strokeColor=none;fillColor=none;align=left;verticalAlign=middle;spacingLeft=4;spacingRight=4;overflow=hidden;points=[[0,0.5],[1,0.5]];portConstraint=eastwest;rotatable=0;whiteSpace=wrap;html=1;" parent="YyFuCEUgJkDw3uB3olMP-77" vertex="1">
          <mxGeometry y="30" width="140" height="30" as="geometry" />
        </mxCell>
        <mxCell id="YyFuCEUgJkDw3uB3olMP-79" value="- Senha: String&lt;br&gt;- nome : String" style="text;strokeColor=none;fillColor=none;align=left;verticalAlign=middle;spacingLeft=4;spacingRight=4;overflow=hidden;points=[[0,0.5],[1,0.5]];portConstraint=eastwest;rotatable=0;whiteSpace=wrap;html=1;" parent="YyFuCEUgJkDw3uB3olMP-77" vertex="1">
          <mxGeometry y="60" width="140" height="30" as="geometry" />
        </mxCell>
        <mxCell id="YyFuCEUgJkDw3uB3olMP-91" value="" style="endArrow=none;html=1;rounded=0;entryX=1.001;entryY=0.044;entryDx=0;entryDy=0;entryPerimeter=0;" parent="YyFuCEUgJkDw3uB3olMP-77" edge="1">
          <mxGeometry width="50" height="50" relative="1" as="geometry">
            <mxPoint y="90" as="sourcePoint" />
            <mxPoint x="140.13999999999987" y="91.32000000000005" as="targetPoint" />
          </mxGeometry>
        </mxCell>
        <mxCell id="YyFuCEUgJkDw3uB3olMP-87" value="Require express" style="text;strokeColor=none;fillColor=none;align=left;verticalAlign=middle;spacingLeft=4;spacingRight=4;overflow=hidden;points=[[0,0.5],[1,0.5]];portConstraint=eastwest;rotatable=0;whiteSpace=wrap;html=1;" parent="YyFuCEUgJkDw3uB3olMP-77" vertex="1">
          <mxGeometry y="90" width="140" height="30" as="geometry" />
        </mxCell>
        <mxCell id="eKCppygwwPN4vZ3J_LK9-69" value="Require connection" style="text;strokeColor=none;fillColor=none;align=left;verticalAlign=middle;spacingLeft=4;spacingRight=4;overflow=hidden;points=[[0,0.5],[1,0.5]];portConstraint=eastwest;rotatable=0;whiteSpace=wrap;html=1;" vertex="1" parent="YyFuCEUgJkDw3uB3olMP-77">
          <mxGeometry y="120" width="140" height="30" as="geometry" />
        </mxCell>
        <mxCell id="eKCppygwwPN4vZ3J_LK9-72" value="GetLogin" style="text;strokeColor=none;fillColor=none;align=left;verticalAlign=middle;spacingLeft=4;spacingRight=4;overflow=hidden;points=[[0,0.5],[1,0.5]];portConstraint=eastwest;rotatable=0;whiteSpace=wrap;html=1;" vertex="1" parent="YyFuCEUgJkDw3uB3olMP-77">
          <mxGeometry y="150" width="140" height="30" as="geometry" />
        </mxCell>
        <mxCell id="eKCppygwwPN4vZ3J_LK9-71" value="insertLogin" style="text;strokeColor=none;fillColor=none;align=left;verticalAlign=middle;spacingLeft=4;spacingRight=4;overflow=hidden;points=[[0,0.5],[1,0.5]];portConstraint=eastwest;rotatable=0;whiteSpace=wrap;html=1;" vertex="1" parent="YyFuCEUgJkDw3uB3olMP-77">
          <mxGeometry y="180" width="140" height="30" as="geometry" />
        </mxCell>
        <mxCell id="eKCppygwwPN4vZ3J_LK9-70" value="deleteLogin" style="text;strokeColor=none;fillColor=none;align=left;verticalAlign=middle;spacingLeft=4;spacingRight=4;overflow=hidden;points=[[0,0.5],[1,0.5]];portConstraint=eastwest;rotatable=0;whiteSpace=wrap;html=1;" vertex="1" parent="YyFuCEUgJkDw3uB3olMP-77">
          <mxGeometry y="210" width="140" height="30" as="geometry" />
        </mxCell>
        <mxCell id="fNCmqbkTBnk3JoZugZRr-0" value="updateLogin" style="text;strokeColor=none;fillColor=none;align=left;verticalAlign=middle;spacingLeft=4;spacingRight=4;overflow=hidden;points=[[0,0.5],[1,0.5]];portConstraint=eastwest;rotatable=0;whiteSpace=wrap;html=1;" parent="YyFuCEUgJkDw3uB3olMP-77" vertex="1">
          <mxGeometry y="240" width="140" height="30" as="geometry" />
        </mxCell>
        <mxCell id="O9sGYvbLRa1DsgovrzPc-6" value="MODEL" style="text;html=1;strokeColor=none;fillColor=none;align=center;verticalAlign=middle;whiteSpace=wrap;rounded=0;" parent="O9sGYvbLRa1DsgovrzPc-1" vertex="1">
          <mxGeometry x="315" width="60" height="30" as="geometry" />
        </mxCell>
        <mxCell id="O9sGYvbLRa1DsgovrzPc-9" style="edgeStyle=orthogonalEdgeStyle;rounded=0;orthogonalLoop=1;jettySize=auto;html=1;" parent="WIyWlLk6GJQsqaUBKTNV-1" source="O9sGYvbLRa1DsgovrzPc-2" target="O9sGYvbLRa1DsgovrzPc-3" edge="1">
          <mxGeometry relative="1" as="geometry" />
        </mxCell>
        <mxCell id="O9sGYvbLRa1DsgovrzPc-2" value="" style="swimlane;startSize=0;" parent="WIyWlLk6GJQsqaUBKTNV-1" vertex="1">
          <mxGeometry x="840" y="-1150" width="800" height="670" as="geometry">
            <mxRectangle x="840" y="-1150" width="50" height="40" as="alternateBounds" />
          </mxGeometry>
        </mxCell>
        <mxCell id="HYiXXA-MwvOxVraPLtR3-11" value="&amp;lt;&amp;lt;control&amp;gt;&amp;gt;" style="text;html=1;strokeColor=none;fillColor=none;align=center;verticalAlign=middle;whiteSpace=wrap;rounded=0;" parent="O9sGYvbLRa1DsgovrzPc-2" vertex="1">
          <mxGeometry x="90" y="96" width="60" height="30" as="geometry" />
        </mxCell>
        <mxCell id="YyFuCEUgJkDw3uB3olMP-2" value="Controller exclusiveGames" style="swimlane;fontStyle=2;align=center;verticalAlign=top;childLayout=stackLayout;horizontal=1;startSize=26;horizontalStack=0;resizeParent=1;resizeLast=0;collapsible=1;marginBottom=0;rounded=0;shadow=0;strokeWidth=1;" parent="O9sGYvbLRa1DsgovrzPc-2" vertex="1">
          <mxGeometry x="10" y="126" width="240" height="244" as="geometry">
            <mxRectangle x="780" y="-720" width="160" height="26" as="alternateBounds" />
          </mxGeometry>
        </mxCell>
        <mxCell id="YyFuCEUgJkDw3uB3olMP-65" style="text;align=left;verticalAlign=top;spacingLeft=4;spacingRight=4;overflow=hidden;rotatable=0;points=[[0,0.5],[1,0.5]];portConstraint=eastwest;" parent="YyFuCEUgJkDw3uB3olMP-2" vertex="1">
          <mxGeometry y="26" width="240" height="26" as="geometry" />
        </mxCell>
        <mxCell id="YyFuCEUgJkDw3uB3olMP-64" style="text;align=left;verticalAlign=top;spacingLeft=4;spacingRight=4;overflow=hidden;rotatable=0;points=[[0,0.5],[1,0.5]];portConstraint=eastwest;" parent="YyFuCEUgJkDw3uB3olMP-2" vertex="1">
          <mxGeometry y="52" width="240" height="26" as="geometry" />
        </mxCell>
        <mxCell id="YyFuCEUgJkDw3uB3olMP-66" value="" style="endArrow=none;html=1;rounded=0;entryX=1;entryY=0.5;entryDx=0;entryDy=0;" parent="YyFuCEUgJkDw3uB3olMP-2" target="YyFuCEUgJkDw3uB3olMP-64" edge="1">
          <mxGeometry width="50" height="50" relative="1" as="geometry">
            <mxPoint y="64.71000000000004" as="sourcePoint" />
            <mxPoint x="70" y="64.71000000000004" as="targetPoint" />
          </mxGeometry>
        </mxCell>
        <mxCell id="YyFuCEUgJkDw3uB3olMP-4" value="RequireÂ exclusiveGames" style="text;align=left;verticalAlign=top;spacingLeft=4;spacingRight=4;overflow=hidden;rotatable=0;points=[[0,0.5],[1,0.5]];portConstraint=eastwest;" parent="YyFuCEUgJkDw3uB3olMP-2" vertex="1">
          <mxGeometry y="78" width="240" height="26" as="geometry" />
        </mxCell>
        <mxCell id="YyFuCEUgJkDw3uB3olMP-23" value="getAllGames" style="text;align=left;verticalAlign=top;spacingLeft=4;spacingRight=4;overflow=hidden;rotatable=0;points=[[0,0.5],[1,0.5]];portConstraint=eastwest;" parent="YyFuCEUgJkDw3uB3olMP-2" vertex="1">
          <mxGeometry y="104" width="240" height="26" as="geometry" />
        </mxCell>
        <mxCell id="fNCmqbkTBnk3JoZugZRr-2" value="getGame" style="text;align=left;verticalAlign=top;spacingLeft=4;spacingRight=4;overflow=hidden;rotatable=0;points=[[0,0.5],[1,0.5]];portConstraint=eastwest;" parent="YyFuCEUgJkDw3uB3olMP-2" vertex="1">
          <mxGeometry y="130" width="240" height="26" as="geometry" />
        </mxCell>
        <mxCell id="fNCmqbkTBnk3JoZugZRr-3" value="insertGame" style="text;align=left;verticalAlign=top;spacingLeft=4;spacingRight=4;overflow=hidden;rotatable=0;points=[[0,0.5],[1,0.5]];portConstraint=eastwest;" parent="YyFuCEUgJkDw3uB3olMP-2" vertex="1">
          <mxGeometry y="156" width="240" height="26" as="geometry" />
        </mxCell>
        <mxCell id="YyFuCEUgJkDw3uB3olMP-24" value="deleteGame" style="text;align=left;verticalAlign=top;spacingLeft=4;spacingRight=4;overflow=hidden;rotatable=0;points=[[0,0.5],[1,0.5]];portConstraint=eastwest;" parent="YyFuCEUgJkDw3uB3olMP-2" vertex="1">
          <mxGeometry y="182" width="240" height="26" as="geometry" />
        </mxCell>
        <mxCell id="fNCmqbkTBnk3JoZugZRr-4" value="updateGame" style="text;align=left;verticalAlign=top;spacingLeft=4;spacingRight=4;overflow=hidden;rotatable=0;points=[[0,0.5],[1,0.5]];portConstraint=eastwest;" parent="YyFuCEUgJkDw3uB3olMP-2" vertex="1">
          <mxGeometry y="208" width="240" height="26" as="geometry" />
        </mxCell>
        <mxCell id="HYiXXA-MwvOxVraPLtR3-12" value="&amp;lt;&amp;lt;control&amp;gt;&amp;gt;" style="text;html=1;strokeColor=none;fillColor=none;align=center;verticalAlign=middle;whiteSpace=wrap;rounded=0;" parent="O9sGYvbLRa1DsgovrzPc-2" vertex="1">
          <mxGeometry x="371" y="96" width="60" height="30" as="geometry" />
        </mxCell>
        <mxCell id="YyFuCEUgJkDw3uB3olMP-95" value="Controller loginController" style="swimlane;fontStyle=2;align=center;verticalAlign=top;childLayout=stackLayout;horizontal=1;startSize=26;horizontalStack=0;resizeParent=1;resizeLast=0;collapsible=1;marginBottom=0;rounded=0;shadow=0;strokeWidth=1;" parent="O9sGYvbLRa1DsgovrzPc-2" vertex="1">
          <mxGeometry x="280" y="126" width="240" height="234" as="geometry">
            <mxRectangle x="780" y="-720" width="160" height="26" as="alternateBounds" />
          </mxGeometry>
        </mxCell>
        <mxCell id="YyFuCEUgJkDw3uB3olMP-96" style="text;align=left;verticalAlign=top;spacingLeft=4;spacingRight=4;overflow=hidden;rotatable=0;points=[[0,0.5],[1,0.5]];portConstraint=eastwest;" parent="YyFuCEUgJkDw3uB3olMP-95" vertex="1">
          <mxGeometry y="26" width="240" height="26" as="geometry" />
        </mxCell>
        <mxCell id="YyFuCEUgJkDw3uB3olMP-97" style="text;align=left;verticalAlign=top;spacingLeft=4;spacingRight=4;overflow=hidden;rotatable=0;points=[[0,0.5],[1,0.5]];portConstraint=eastwest;" parent="YyFuCEUgJkDw3uB3olMP-95" vertex="1">
          <mxGeometry y="52" width="240" height="26" as="geometry" />
        </mxCell>
        <mxCell id="YyFuCEUgJkDw3uB3olMP-98" value="" style="endArrow=none;html=1;rounded=0;entryX=1;entryY=0.5;entryDx=0;entryDy=0;" parent="YyFuCEUgJkDw3uB3olMP-95" target="YyFuCEUgJkDw3uB3olMP-97" edge="1">
          <mxGeometry width="50" height="50" relative="1" as="geometry">
            <mxPoint y="64.71000000000004" as="sourcePoint" />
            <mxPoint x="70" y="64.71000000000004" as="targetPoint" />
          </mxGeometry>
        </mxCell>
        <mxCell id="YyFuCEUgJkDw3uB3olMP-99" value="RequireÂ express" style="text;align=left;verticalAlign=top;spacingLeft=4;spacingRight=4;overflow=hidden;rotatable=0;points=[[0,0.5],[1,0.5]];portConstraint=eastwest;" parent="YyFuCEUgJkDw3uB3olMP-95" vertex="1">
          <mxGeometry y="78" width="240" height="26" as="geometry" />
        </mxCell>
        <mxCell id="YyFuCEUgJkDw3uB3olMP-108" value="RequireÂ login" style="text;align=left;verticalAlign=top;spacingLeft=4;spacingRight=4;overflow=hidden;rotatable=0;points=[[0,0.5],[1,0.5]];portConstraint=eastwest;" parent="YyFuCEUgJkDw3uB3olMP-95" vertex="1">
          <mxGeometry y="104" width="240" height="26" as="geometry" />
        </mxCell>
        <mxCell id="fNCmqbkTBnk3JoZugZRr-1" value="getLogin" style="text;align=left;verticalAlign=top;spacingLeft=4;spacingRight=4;overflow=hidden;rotatable=0;points=[[0,0.5],[1,0.5]];portConstraint=eastwest;" parent="YyFuCEUgJkDw3uB3olMP-95" vertex="1">
          <mxGeometry y="130" width="240" height="26" as="geometry" />
        </mxCell>
        <mxCell id="eKCppygwwPN4vZ3J_LK9-22" value="insertLogin" style="text;align=left;verticalAlign=top;spacingLeft=4;spacingRight=4;overflow=hidden;rotatable=0;points=[[0,0.5],[1,0.5]];portConstraint=eastwest;" vertex="1" parent="YyFuCEUgJkDw3uB3olMP-95">
          <mxGeometry y="156" width="240" height="26" as="geometry" />
        </mxCell>
        <mxCell id="eKCppygwwPN4vZ3J_LK9-23" value="deleteLogin" style="text;align=left;verticalAlign=top;spacingLeft=4;spacingRight=4;overflow=hidden;rotatable=0;points=[[0,0.5],[1,0.5]];portConstraint=eastwest;" vertex="1" parent="YyFuCEUgJkDw3uB3olMP-95">
          <mxGeometry y="182" width="240" height="26" as="geometry" />
        </mxCell>
        <mxCell id="eKCppygwwPN4vZ3J_LK9-24" value="updateLogin" style="text;align=left;verticalAlign=top;spacingLeft=4;spacingRight=4;overflow=hidden;rotatable=0;points=[[0,0.5],[1,0.5]];portConstraint=eastwest;" vertex="1" parent="YyFuCEUgJkDw3uB3olMP-95">
          <mxGeometry y="208" width="240" height="26" as="geometry" />
        </mxCell>
        <mxCell id="O9sGYvbLRa1DsgovrzPc-4" value="CONTROL" style="text;html=1;strokeColor=none;fillColor=none;align=center;verticalAlign=middle;whiteSpace=wrap;rounded=0;" parent="O9sGYvbLRa1DsgovrzPc-2" vertex="1">
          <mxGeometry x="390" width="60" height="30" as="geometry" />
        </mxCell>
        <mxCell id="eKCppygwwPN4vZ3J_LK9-14" value="Controller dataEventController" style="swimlane;fontStyle=2;align=center;verticalAlign=top;childLayout=stackLayout;horizontal=1;startSize=26;horizontalStack=0;resizeParent=1;resizeLast=0;collapsible=1;marginBottom=0;rounded=0;shadow=0;strokeWidth=1;" vertex="1" parent="O9sGYvbLRa1DsgovrzPc-2">
          <mxGeometry x="550" y="126" width="240" height="234" as="geometry">
            <mxRectangle x="780" y="-720" width="160" height="26" as="alternateBounds" />
          </mxGeometry>
        </mxCell>
        <mxCell id="eKCppygwwPN4vZ3J_LK9-15" style="text;align=left;verticalAlign=top;spacingLeft=4;spacingRight=4;overflow=hidden;rotatable=0;points=[[0,0.5],[1,0.5]];portConstraint=eastwest;" vertex="1" parent="eKCppygwwPN4vZ3J_LK9-14">
          <mxGeometry y="26" width="240" height="26" as="geometry" />
        </mxCell>
        <mxCell id="eKCppygwwPN4vZ3J_LK9-16" style="text;align=left;verticalAlign=top;spacingLeft=4;spacingRight=4;overflow=hidden;rotatable=0;points=[[0,0.5],[1,0.5]];portConstraint=eastwest;" vertex="1" parent="eKCppygwwPN4vZ3J_LK9-14">
          <mxGeometry y="52" width="240" height="26" as="geometry" />
        </mxCell>
        <mxCell id="eKCppygwwPN4vZ3J_LK9-17" value="" style="endArrow=none;html=1;rounded=0;entryX=1;entryY=0.5;entryDx=0;entryDy=0;" edge="1" parent="eKCppygwwPN4vZ3J_LK9-14" target="eKCppygwwPN4vZ3J_LK9-16">
          <mxGeometry width="50" height="50" relative="1" as="geometry">
            <mxPoint y="64.71000000000004" as="sourcePoint" />
            <mxPoint x="70" y="64.71000000000004" as="targetPoint" />
          </mxGeometry>
        </mxCell>
        <mxCell id="eKCppygwwPN4vZ3J_LK9-18" value="RequireÂ express" style="text;align=left;verticalAlign=top;spacingLeft=4;spacingRight=4;overflow=hidden;rotatable=0;points=[[0,0.5],[1,0.5]];portConstraint=eastwest;" vertex="1" parent="eKCppygwwPN4vZ3J_LK9-14">
          <mxGeometry y="78" width="240" height="26" as="geometry" />
        </mxCell>
        <mxCell id="eKCppygwwPN4vZ3J_LK9-19" value="RequireÂ dataEvent" style="text;align=left;verticalAlign=top;spacingLeft=4;spacingRight=4;overflow=hidden;rotatable=0;points=[[0,0.5],[1,0.5]];portConstraint=eastwest;" vertex="1" parent="eKCppygwwPN4vZ3J_LK9-14">
          <mxGeometry y="104" width="240" height="26" as="geometry" />
        </mxCell>
        <mxCell id="eKCppygwwPN4vZ3J_LK9-20" value="getEventData" style="text;align=left;verticalAlign=top;spacingLeft=4;spacingRight=4;overflow=hidden;rotatable=0;points=[[0,0.5],[1,0.5]];portConstraint=eastwest;" vertex="1" parent="eKCppygwwPN4vZ3J_LK9-14">
          <mxGeometry y="130" width="240" height="26" as="geometry" />
        </mxCell>
        <mxCell id="eKCppygwwPN4vZ3J_LK9-25" value="insertEvent" style="text;align=left;verticalAlign=top;spacingLeft=4;spacingRight=4;overflow=hidden;rotatable=0;points=[[0,0.5],[1,0.5]];portConstraint=eastwest;" vertex="1" parent="eKCppygwwPN4vZ3J_LK9-14">
          <mxGeometry y="156" width="240" height="26" as="geometry" />
        </mxCell>
        <mxCell id="eKCppygwwPN4vZ3J_LK9-26" value="deleteEvent" style="text;align=left;verticalAlign=top;spacingLeft=4;spacingRight=4;overflow=hidden;rotatable=0;points=[[0,0.5],[1,0.5]];portConstraint=eastwest;" vertex="1" parent="eKCppygwwPN4vZ3J_LK9-14">
          <mxGeometry y="182" width="240" height="26" as="geometry" />
        </mxCell>
        <mxCell id="eKCppygwwPN4vZ3J_LK9-27" value="updateEvent" style="text;align=left;verticalAlign=top;spacingLeft=4;spacingRight=4;overflow=hidden;rotatable=0;points=[[0,0.5],[1,0.5]];portConstraint=eastwest;" vertex="1" parent="eKCppygwwPN4vZ3J_LK9-14">
          <mxGeometry y="208" width="240" height="26" as="geometry" />
        </mxCell>
        <mxCell id="eKCppygwwPN4vZ3J_LK9-21" value="&amp;lt;&amp;lt;control&amp;gt;&amp;gt;" style="text;html=1;strokeColor=none;fillColor=none;align=center;verticalAlign=middle;whiteSpace=wrap;rounded=0;" vertex="1" parent="O9sGYvbLRa1DsgovrzPc-2">
          <mxGeometry x="640" y="96" width="60" height="30" as="geometry" />
        </mxCell>
        <mxCell id="eKCppygwwPN4vZ3J_LK9-28" value="Controller indexController" style="swimlane;fontStyle=2;align=center;verticalAlign=top;childLayout=stackLayout;horizontal=1;startSize=26;horizontalStack=0;resizeParent=1;resizeLast=0;collapsible=1;marginBottom=0;rounded=0;shadow=0;strokeWidth=1;" vertex="1" parent="O9sGYvbLRa1DsgovrzPc-2">
          <mxGeometry x="450" y="430" width="240" height="130" as="geometry">
            <mxRectangle x="780" y="-720" width="160" height="26" as="alternateBounds" />
          </mxGeometry>
        </mxCell>
        <mxCell id="eKCppygwwPN4vZ3J_LK9-29" style="text;align=left;verticalAlign=top;spacingLeft=4;spacingRight=4;overflow=hidden;rotatable=0;points=[[0,0.5],[1,0.5]];portConstraint=eastwest;" vertex="1" parent="eKCppygwwPN4vZ3J_LK9-28">
          <mxGeometry y="26" width="240" height="26" as="geometry" />
        </mxCell>
        <mxCell id="eKCppygwwPN4vZ3J_LK9-30" style="text;align=left;verticalAlign=top;spacingLeft=4;spacingRight=4;overflow=hidden;rotatable=0;points=[[0,0.5],[1,0.5]];portConstraint=eastwest;" vertex="1" parent="eKCppygwwPN4vZ3J_LK9-28">
          <mxGeometry y="52" width="240" height="26" as="geometry" />
        </mxCell>
        <mxCell id="eKCppygwwPN4vZ3J_LK9-31" value="" style="endArrow=none;html=1;rounded=0;entryX=1;entryY=0.5;entryDx=0;entryDy=0;" edge="1" parent="eKCppygwwPN4vZ3J_LK9-28" target="eKCppygwwPN4vZ3J_LK9-30">
          <mxGeometry width="50" height="50" relative="1" as="geometry">
            <mxPoint y="64.71000000000004" as="sourcePoint" />
            <mxPoint x="70" y="64.71000000000004" as="targetPoint" />
          </mxGeometry>
        </mxCell>
        <mxCell id="eKCppygwwPN4vZ3J_LK9-32" value="getIndex" style="text;align=left;verticalAlign=top;spacingLeft=4;spacingRight=4;overflow=hidden;rotatable=0;points=[[0,0.5],[1,0.5]];portConstraint=eastwest;" vertex="1" parent="eKCppygwwPN4vZ3J_LK9-28">
          <mxGeometry y="78" width="240" height="26" as="geometry" />
        </mxCell>
        <mxCell id="eKCppygwwPN4vZ3J_LK9-38" value="Controller notExclusiveGames" style="swimlane;fontStyle=2;align=center;verticalAlign=top;childLayout=stackLayout;horizontal=1;startSize=26;horizontalStack=0;resizeParent=1;resizeLast=0;collapsible=1;marginBottom=0;rounded=0;shadow=0;strokeWidth=1;" vertex="1" parent="O9sGYvbLRa1DsgovrzPc-2">
          <mxGeometry x="80" y="430" width="240" height="210" as="geometry">
            <mxRectangle x="780" y="-720" width="160" height="26" as="alternateBounds" />
          </mxGeometry>
        </mxCell>
        <mxCell id="eKCppygwwPN4vZ3J_LK9-39" style="text;align=left;verticalAlign=top;spacingLeft=4;spacingRight=4;overflow=hidden;rotatable=0;points=[[0,0.5],[1,0.5]];portConstraint=eastwest;" vertex="1" parent="eKCppygwwPN4vZ3J_LK9-38">
          <mxGeometry y="26" width="240" height="26" as="geometry" />
        </mxCell>
        <mxCell id="eKCppygwwPN4vZ3J_LK9-40" style="text;align=left;verticalAlign=top;spacingLeft=4;spacingRight=4;overflow=hidden;rotatable=0;points=[[0,0.5],[1,0.5]];portConstraint=eastwest;" vertex="1" parent="eKCppygwwPN4vZ3J_LK9-38">
          <mxGeometry y="52" width="240" height="26" as="geometry" />
        </mxCell>
        <mxCell id="eKCppygwwPN4vZ3J_LK9-41" value="" style="endArrow=none;html=1;rounded=0;entryX=1;entryY=0.5;entryDx=0;entryDy=0;" edge="1" parent="eKCppygwwPN4vZ3J_LK9-38" target="eKCppygwwPN4vZ3J_LK9-40">
          <mxGeometry width="50" height="50" relative="1" as="geometry">
            <mxPoint y="64.71000000000004" as="sourcePoint" />
            <mxPoint x="70" y="64.71000000000004" as="targetPoint" />
          </mxGeometry>
        </mxCell>
        <mxCell id="eKCppygwwPN4vZ3J_LK9-42" value="RequireÂ notExclusiveGames" style="text;align=left;verticalAlign=top;spacingLeft=4;spacingRight=4;overflow=hidden;rotatable=0;points=[[0,0.5],[1,0.5]];portConstraint=eastwest;" vertex="1" parent="eKCppygwwPN4vZ3J_LK9-38">
          <mxGeometry y="78" width="240" height="26" as="geometry" />
        </mxCell>
        <mxCell id="eKCppygwwPN4vZ3J_LK9-43" value="getGame" style="text;align=left;verticalAlign=top;spacingLeft=4;spacingRight=4;overflow=hidden;rotatable=0;points=[[0,0.5],[1,0.5]];portConstraint=eastwest;" vertex="1" parent="eKCppygwwPN4vZ3J_LK9-38">
          <mxGeometry y="104" width="240" height="26" as="geometry" />
        </mxCell>
        <mxCell id="eKCppygwwPN4vZ3J_LK9-44" value="insertGame" style="text;align=left;verticalAlign=top;spacingLeft=4;spacingRight=4;overflow=hidden;rotatable=0;points=[[0,0.5],[1,0.5]];portConstraint=eastwest;" vertex="1" parent="eKCppygwwPN4vZ3J_LK9-38">
          <mxGeometry y="130" width="240" height="26" as="geometry" />
        </mxCell>
        <mxCell id="eKCppygwwPN4vZ3J_LK9-45" value="deleteGame" style="text;align=left;verticalAlign=top;spacingLeft=4;spacingRight=4;overflow=hidden;rotatable=0;points=[[0,0.5],[1,0.5]];portConstraint=eastwest;" vertex="1" parent="eKCppygwwPN4vZ3J_LK9-38">
          <mxGeometry y="156" width="240" height="26" as="geometry" />
        </mxCell>
        <mxCell id="eKCppygwwPN4vZ3J_LK9-46" value="updateGame" style="text;align=left;verticalAlign=top;spacingLeft=4;spacingRight=4;overflow=hidden;rotatable=0;points=[[0,0.5],[1,0.5]];portConstraint=eastwest;" vertex="1" parent="eKCppygwwPN4vZ3J_LK9-38">
          <mxGeometry y="182" width="240" height="26" as="geometry" />
        </mxCell>
        <mxCell id="eKCppygwwPN4vZ3J_LK9-48" value="&amp;lt;&amp;lt;control&amp;gt;&amp;gt;" style="text;html=1;strokeColor=none;fillColor=none;align=center;verticalAlign=middle;whiteSpace=wrap;rounded=0;" vertex="1" parent="O9sGYvbLRa1DsgovrzPc-2">
          <mxGeometry x="160" y="400" width="60" height="30" as="geometry" />
        </mxCell>
        <mxCell id="eKCppygwwPN4vZ3J_LK9-49" value="&amp;lt;&amp;lt;control&amp;gt;&amp;gt;" style="text;html=1;strokeColor=none;fillColor=none;align=center;verticalAlign=middle;whiteSpace=wrap;rounded=0;" vertex="1" parent="O9sGYvbLRa1DsgovrzPc-2">
          <mxGeometry x="530" y="400" width="60" height="30" as="geometry" />
        </mxCell>
        <mxCell id="O9sGYvbLRa1DsgovrzPc-3" value="" style="swimlane;startSize=0;" parent="WIyWlLk6GJQsqaUBKTNV-1" vertex="1">
          <mxGeometry x="980" y="-380" width="420" height="354" as="geometry">
            <mxRectangle x="850" y="-274" width="50" height="40" as="alternateBounds" />
          </mxGeometry>
        </mxCell>
        <mxCell id="HYiXXA-MwvOxVraPLtR3-20" value="&amp;lt;&amp;lt;boundary&amp;gt;&amp;gt;" style="text;html=1;strokeColor=none;fillColor=none;align=center;verticalAlign=middle;whiteSpace=wrap;rounded=0;" parent="O9sGYvbLRa1DsgovrzPc-3" vertex="1">
          <mxGeometry x="80" y="34" width="60" height="30" as="geometry" />
        </mxCell>
        <mxCell id="zkfFHV4jXpPFQw0GAbJ--0" value="Ã¡reaPublica" style="swimlane;fontStyle=2;align=center;verticalAlign=top;childLayout=stackLayout;horizontal=1;startSize=26;horizontalStack=0;resizeParent=1;resizeLast=0;collapsible=1;marginBottom=0;rounded=0;shadow=0;strokeWidth=1;" parent="O9sGYvbLRa1DsgovrzPc-3" vertex="1">
          <mxGeometry x="20" y="64" width="160" height="138" as="geometry">
            <mxRectangle x="860" y="-858" width="160" height="26" as="alternateBounds" />
          </mxGeometry>
        </mxCell>
        <mxCell id="zkfFHV4jXpPFQw0GAbJ--4" value="" style="line;html=1;strokeWidth=1;align=left;verticalAlign=middle;spacingTop=-1;spacingLeft=3;spacingRight=3;rotatable=0;labelPosition=right;points=[];portConstraint=eastwest;" parent="zkfFHV4jXpPFQw0GAbJ--0" vertex="1">
          <mxGeometry y="26" width="160" height="8" as="geometry" />
        </mxCell>
        <mxCell id="zkfFHV4jXpPFQw0GAbJ--5" value="index.html" style="text;align=left;verticalAlign=top;spacingLeft=4;spacingRight=4;overflow=hidden;rotatable=0;points=[[0,0.5],[1,0.5]];portConstraint=eastwest;" parent="zkfFHV4jXpPFQw0GAbJ--0" vertex="1">
          <mxGeometry y="34" width="160" height="26" as="geometry" />
        </mxCell>
        <mxCell id="YyFuCEUgJkDw3uB3olMP-6" value="games.html" style="text;align=left;verticalAlign=top;spacingLeft=4;spacingRight=4;overflow=hidden;rotatable=0;points=[[0,0.5],[1,0.5]];portConstraint=eastwest;" parent="zkfFHV4jXpPFQw0GAbJ--0" vertex="1">
          <mxGeometry y="60" width="160" height="26" as="geometry" />
        </mxCell>
        <mxCell id="O9sGYvbLRa1DsgovrzPc-5" value="VIEW" style="text;html=1;strokeColor=none;fillColor=none;align=center;verticalAlign=middle;whiteSpace=wrap;rounded=0;" parent="O9sGYvbLRa1DsgovrzPc-3" vertex="1">
          <mxGeometry x="165.5" width="60" height="30" as="geometry" />
        </mxCell>
        <mxCell id="eKCppygwwPN4vZ3J_LK9-0" value="Ã¡reaRestrita" style="swimlane;fontStyle=2;align=center;verticalAlign=top;childLayout=stackLayout;horizontal=1;startSize=26;horizontalStack=0;resizeParent=1;resizeLast=0;collapsible=1;marginBottom=0;rounded=0;shadow=0;strokeWidth=1;" vertex="1" parent="O9sGYvbLRa1DsgovrzPc-3">
          <mxGeometry x="210" y="64" width="190" height="276" as="geometry">
            <mxRectangle x="860" y="-858" width="160" height="26" as="alternateBounds" />
          </mxGeometry>
        </mxCell>
        <mxCell id="eKCppygwwPN4vZ3J_LK9-1" value="" style="line;html=1;strokeWidth=1;align=left;verticalAlign=middle;spacingTop=-1;spacingLeft=3;spacingRight=3;rotatable=0;labelPosition=right;points=[];portConstraint=eastwest;" vertex="1" parent="eKCppygwwPN4vZ3J_LK9-0">
          <mxGeometry y="26" width="190" height="8" as="geometry" />
        </mxCell>
        <mxCell id="eKCppygwwPN4vZ3J_LK9-2" value="login.html" style="text;align=left;verticalAlign=top;spacingLeft=4;spacingRight=4;overflow=hidden;rotatable=0;points=[[0,0.5],[1,0.5]];portConstraint=eastwest;" vertex="1" parent="eKCppygwwPN4vZ3J_LK9-0">
          <mxGeometry y="34" width="190" height="26" as="geometry" />
        </mxCell>
        <mxCell id="eKCppygwwPN4vZ3J_LK9-3" value="restrictArea.html" style="text;align=left;verticalAlign=top;spacingLeft=4;spacingRight=4;overflow=hidden;rotatable=0;points=[[0,0.5],[1,0.5]];portConstraint=eastwest;" vertex="1" parent="eKCppygwwPN4vZ3J_LK9-0">
          <mxGeometry y="60" width="190" height="26" as="geometry" />
        </mxCell>
        <mxCell id="eKCppygwwPN4vZ3J_LK9-5" value="editGames.html" style="text;align=left;verticalAlign=top;spacingLeft=4;spacingRight=4;overflow=hidden;rotatable=0;points=[[0,0.5],[1,0.5]];portConstraint=eastwest;" vertex="1" parent="eKCppygwwPN4vZ3J_LK9-0">
          <mxGeometry y="86" width="190" height="26" as="geometry" />
        </mxCell>
        <mxCell id="eKCppygwwPN4vZ3J_LK9-6" value="formDataEvents.html" style="text;align=left;verticalAlign=top;spacingLeft=4;spacingRight=4;overflow=hidden;rotatable=0;points=[[0,0.5],[1,0.5]];portConstraint=eastwest;" vertex="1" parent="eKCppygwwPN4vZ3J_LK9-0">
          <mxGeometry y="112" width="190" height="26" as="geometry" />
        </mxCell>
        <mxCell id="eKCppygwwPN4vZ3J_LK9-7" value="formEditDataEvents.html" style="text;align=left;verticalAlign=top;spacingLeft=4;spacingRight=4;overflow=hidden;rotatable=0;points=[[0,0.5],[1,0.5]];portConstraint=eastwest;" vertex="1" parent="eKCppygwwPN4vZ3J_LK9-0">
          <mxGeometry y="138" width="190" height="26" as="geometry" />
        </mxCell>
        <mxCell id="eKCppygwwPN4vZ3J_LK9-9" value="formEditExclusiveGames.html" style="text;align=left;verticalAlign=top;spacingLeft=4;spacingRight=4;overflow=hidden;rotatable=0;points=[[0,0.5],[1,0.5]];portConstraint=eastwest;" vertex="1" parent="eKCppygwwPN4vZ3J_LK9-0">
          <mxGeometry y="164" width="190" height="26" as="geometry" />
        </mxCell>
        <mxCell id="eKCppygwwPN4vZ3J_LK9-10" value="formEditNotExclusiveGames.html" style="text;align=left;verticalAlign=top;spacingLeft=4;spacingRight=4;overflow=hidden;rotatable=0;points=[[0,0.5],[1,0.5]];portConstraint=eastwest;" vertex="1" parent="eKCppygwwPN4vZ3J_LK9-0">
          <mxGeometry y="190" width="190" height="26" as="geometry" />
        </mxCell>
        <mxCell id="eKCppygwwPN4vZ3J_LK9-11" value="formExclusiveGames.html" style="text;align=left;verticalAlign=top;spacingLeft=4;spacingRight=4;overflow=hidden;rotatable=0;points=[[0,0.5],[1,0.5]];portConstraint=eastwest;" vertex="1" parent="eKCppygwwPN4vZ3J_LK9-0">
          <mxGeometry y="216" width="190" height="26" as="geometry" />
        </mxCell>
        <mxCell id="eKCppygwwPN4vZ3J_LK9-12" value="formNotExclusiveGames.html" style="text;align=left;verticalAlign=top;spacingLeft=4;spacingRight=4;overflow=hidden;rotatable=0;points=[[0,0.5],[1,0.5]];portConstraint=eastwest;" vertex="1" parent="eKCppygwwPN4vZ3J_LK9-0">
          <mxGeometry y="242" width="190" height="26" as="geometry" />
        </mxCell>
        <mxCell id="eKCppygwwPN4vZ3J_LK9-4" value="&amp;lt;&amp;lt;boundary&amp;gt;&amp;gt;" style="text;html=1;strokeColor=none;fillColor=none;align=center;verticalAlign=middle;whiteSpace=wrap;rounded=0;" vertex="1" parent="O9sGYvbLRa1DsgovrzPc-3">
          <mxGeometry x="260" y="34" width="60" height="30" as="geometry" />
        </mxCell>
        <mxCell id="O9sGYvbLRa1DsgovrzPc-7" style="edgeStyle=orthogonalEdgeStyle;rounded=0;orthogonalLoop=1;jettySize=auto;html=1;entryX=1.006;entryY=0.404;entryDx=0;entryDy=0;entryPerimeter=0;" parent="WIyWlLk6GJQsqaUBKTNV-1" source="O9sGYvbLRa1DsgovrzPc-2" target="O9sGYvbLRa1DsgovrzPc-1" edge="1">
          <mxGeometry relative="1" as="geometry" />
        </mxCell>
        <mxCell id="O9sGYvbLRa1DsgovrzPc-10" style="edgeStyle=orthogonalEdgeStyle;rounded=0;orthogonalLoop=1;jettySize=auto;html=1;entryX=0.788;entryY=0.999;entryDx=0;entryDy=0;entryPerimeter=0;" parent="WIyWlLk6GJQsqaUBKTNV-1" source="O9sGYvbLRa1DsgovrzPc-3" target="O9sGYvbLRa1DsgovrzPc-1" edge="1">
          <mxGeometry relative="1" as="geometry" />
        </mxCell>
      </root>
    </mxGraphModel>
  </diagram>
</mxfile>
